<svg xmlns="http://www.w3.org/2000/svg" xmlns:xlink="http://www.w3.org/1999/xlink" width="40" zoomAndPan="magnify" viewBox="0 0 30 30.000001" height="40" preserveAspectRatio="xMidYMid meet" version="1.0"><defs><clipPath id="73522e97cf"><path d="M 11.5 11 L 18.757812 11 L 18.757812 19 L 11.5 19 Z M 11.5 11 " clip-rule="nonzero"/></clipPath><clipPath id="12cf363bba"><path d="M 11.5 0.511719 L 18.757812 0.511719 L 18.757812 8 L 11.5 8 Z M 11.5 0.511719 " clip-rule="nonzero"/></clipPath><clipPath id="90175c18a8"><path d="M 11.5 21 L 18.757812 21 L 18.757812 28.820312 L 11.5 28.820312 Z M 11.5 21 " clip-rule="nonzero"/></clipPath></defs><g clip-path="url(#73522e97cf)"><path fill="black" d="M 18.757812 14.664062 C 18.757812 15.132812 18.664062 15.585938 18.480469 16.019531 C 18.296875 16.453125 18.035156 16.835938 17.695312 17.167969 C 17.355469 17.5 16.960938 17.753906 16.515625 17.933594 C 16.070312 18.113281 15.609375 18.203125 15.128906 18.203125 C 14.648438 18.203125 14.183594 18.113281 13.738281 17.933594 C 13.292969 17.753906 12.902344 17.5 12.5625 17.167969 C 12.222656 16.835938 11.960938 16.453125 11.773438 16.019531 C 11.589844 15.585938 11.5 15.132812 11.5 14.664062 C 11.5 14.195312 11.589844 13.746094 11.773438 13.3125 C 11.960938 12.878906 12.222656 12.496094 12.5625 12.164062 C 12.902344 11.832031 13.292969 11.578125 13.738281 11.398438 C 14.183594 11.21875 14.648438 11.128906 15.128906 11.128906 C 15.609375 11.128906 16.070312 11.21875 16.515625 11.398438 C 16.960938 11.578125 17.355469 11.832031 17.695312 12.164062 C 18.035156 12.496094 18.296875 12.878906 18.480469 13.3125 C 18.664062 13.746094 18.757812 14.195312 18.757812 14.664062 Z M 18.757812 14.664062 " fill-opacity="1" fill-rule="nonzero"/></g><g clip-path="url(#12cf363bba)"><path fill="black" d="M 18.757812 4.054688 C 18.757812 4.523438 18.664062 4.976562 18.480469 5.410156 C 18.296875 5.839844 18.035156 6.222656 17.695312 6.554688 C 17.355469 6.886719 16.960938 7.144531 16.515625 7.324219 C 16.070312 7.503906 15.609375 7.59375 15.128906 7.59375 C 14.648438 7.59375 14.183594 7.503906 13.738281 7.324219 C 13.292969 7.144531 12.902344 6.886719 12.5625 6.554688 C 12.222656 6.222656 11.960938 5.839844 11.773438 5.410156 C 11.589844 4.976562 11.5 4.523438 11.5 4.054688 C 11.5 3.585938 11.589844 3.132812 11.773438 2.703125 C 11.960938 2.269531 12.222656 1.886719 12.5625 1.554688 C 12.902344 1.222656 13.292969 0.964844 13.738281 0.789062 C 14.183594 0.609375 14.648438 0.519531 15.128906 0.519531 C 15.609375 0.519531 16.070312 0.609375 16.515625 0.789062 C 16.960938 0.964844 17.355469 1.222656 17.695312 1.554688 C 18.035156 1.886719 18.296875 2.269531 18.480469 2.703125 C 18.664062 3.132812 18.757812 3.585938 18.757812 4.054688 Z M 18.757812 4.054688 " fill-opacity="1" fill-rule="nonzero"/></g><g clip-path="url(#90175c18a8)"><path fill="black" d="M 18.757812 25.277344 C 18.757812 25.746094 18.664062 26.195312 18.480469 26.628906 C 18.296875 27.0625 18.035156 27.445312 17.695312 27.777344 C 17.355469 28.109375 16.960938 28.363281 16.515625 28.542969 C 16.070312 28.722656 15.609375 28.8125 15.128906 28.8125 C 14.648438 28.8125 14.183594 28.722656 13.738281 28.542969 C 13.292969 28.363281 12.902344 28.109375 12.5625 27.777344 C 12.222656 27.445312 11.960938 27.0625 11.773438 26.628906 C 11.589844 26.195312 11.5 25.746094 11.5 25.277344 C 11.5 24.808594 11.589844 24.355469 11.773438 23.921875 C 11.960938 23.488281 12.222656 23.105469 12.5625 22.773438 C 12.902344 22.445312 13.292969 22.1875 13.738281 22.007812 C 14.183594 21.828125 14.648438 21.738281 15.128906 21.738281 C 15.609375 21.738281 16.070312 21.828125 16.515625 22.007812 C 16.960938 22.1875 17.355469 22.445312 17.695312 22.773438 C 18.035156 23.105469 18.296875 23.488281 18.480469 23.921875 C 18.664062 24.355469 18.757812 24.808594 18.757812 25.277344 Z M 18.757812 25.277344 " fill-opacity="1" fill-rule="nonzero"/></g></svg>
